<!-- Generated by IcoMoon.io -->
<svg version="1.1" xmlns="http://www.w3.org/2000/svg" width="27" height="32" viewBox="0 0 27 32">
<title>github</title>
<path d="M9.352 21.331v0c0.035-0.053 0.018-0.158-0.053-0.228-0.088-0.070-0.193-0.088-0.246-0.035-0.035 0.053-0.018 0.158 0.053 0.228 0.088 0.070 0.193 0.088 0.246 0.035zM8.861 20.612c-0.053-0.070-0.14-0.105-0.21-0.070-0.053 0.035-0.053 0.14 0 0.21 0.070 0.088 0.158 0.123 0.21 0.088v0c0.053-0.035 0.053-0.14 0-0.228zM8.142 19.911v0c0.018-0.035-0.018-0.105-0.088-0.14-0.053-0.018-0.123-0.018-0.14 0.035-0.035 0.053 0 0.105 0.070 0.14 0.070 0.018 0.14 0.018 0.158-0.035zM8.51 20.314v0c0.035-0.035 0.035-0.123-0.035-0.175-0.053-0.070-0.14-0.088-0.175-0.053-0.053 0.053-0.035 0.123 0.018 0.193 0.053 0.053 0.14 0.088 0.193 0.035zM10.018 21.629v0c0.018-0.070-0.053-0.158-0.158-0.193s-0.193 0-0.228 0.070c-0.018 0.070 0.053 0.158 0.158 0.193s0.193 0 0.228-0.070zM10.755 21.682v0c0-0.070-0.088-0.14-0.21-0.14-0.105 0-0.175 0.070-0.175 0.14s0.088 0.14 0.193 0.14 0.193-0.070 0.193-0.14zM11.439 21.559v0c-0.018-0.070-0.123-0.105-0.228-0.088s-0.175 0.088-0.158 0.158 0.105 0.123 0.21 0.105 0.175-0.105 0.175-0.175zM22.698 16c0-4.963-4.016-8.979-8.979-8.979s-8.979 4.016-8.979 8.979c0 3.963 2.578 7.331 6.138 8.523 0.456 0.088 0.614-0.193 0.614-0.438 0-0.21 0-0.912-0.018-1.666 0 0-2.49 0.544-3.016-1.070 0 0-0.403-1.035-1-1.298 0 0-0.807-0.561 0.070-0.561 0 0 0.877 0.070 1.368 0.929 0.789 1.385 2.104 0.982 2.613 0.754 0.088-0.579 0.316-0.982 0.579-1.21-1.999-0.228-4.104-1-4.104-4.437 0-0.982 0.351-1.771 0.929-2.403-0.088-0.228-0.403-1.14 0.088-2.385 0.754-0.228 2.473 0.929 2.473 0.929 0.719-0.21 1.473-0.298 2.245-0.298s1.526 0.088 2.245 0.298c0 0 1.719-1.157 2.473-0.929 0.491 1.245 0.175 2.157 0.088 2.385 0.579 0.631 0.929 1.421 0.929 2.403 0 3.455-2.104 4.209-4.104 4.437 0.316 0.281 0.614 0.824 0.614 1.666 0 1.193-0.018 2.157-0.018 2.455 0 0.246 0.158 0.526 0.614 0.438 3.56-1.193 6.138-4.56 6.138-8.523zM27.187 7.582v16.836c0 2.788-2.262 5.051-5.051 5.051h-16.836c-2.788 0-5.051-2.262-5.051-5.051v-16.836c0-2.788 2.262-5.051 5.051-5.051h16.836c2.788 0 5.051 2.262 5.051 5.051z"></path>
</svg>
