<!-- Generated by IcoMoon.io -->
<svg version="1.1" xmlns="http://www.w3.org/2000/svg" width="32" height="32" viewBox="0 0 32 32">
<title>insta</title>
<path d="M5.964 0.366c-1.086 0.219-2.153 0.675-2.95 1.272-1.362 1.022-2.391 2.692-2.692 4.376-0.051 0.263-0.071 3.457-0.071 9.973 0 10.275-0.007 9.967 0.321 10.95 0.694 2.076 2.371 3.779 4.37 4.421 1.202 0.392 0.463 0.366 10.989 0.366 9.061 0 9.639-0.006 10.141-0.116 1.471-0.328 2.513-0.88 3.541-1.889 1.176-1.163 1.812-2.442 2.031-4.113 0.141-1.092 0.141-18.16 0-19.253-0.161-1.24-0.514-2.134-1.266-3.226-0.071-0.103-0.585-0.681-0.79-0.893-0.887-0.906-2.153-1.562-3.554-1.844-0.578-0.116-1.041-0.122-10.121-0.116-7.57 0.007-9.607 0.026-9.948 0.090zM21.393 4.157c2.339 0.238 3.734 0.925 5.006 2.474 0.353 0.431 0.598 0.861 0.861 1.542 0.572 1.484 0.591 1.767 0.591 7.808 0 6.060-0.019 6.323-0.591 7.808-0.264 0.681-0.508 1.112-0.861 1.542-1.189 1.446-2.487 2.14-4.588 2.448-0.347 0.051-2.114 0.084-5.353 0.103-5.282 0.032-6.304-0.013-7.499-0.321-2.185-0.565-3.779-2.050-4.473-4.158-0.418-1.285-0.469-2.089-0.469-7.39 0.006-6.079 0.071-6.715 0.829-8.322 0.405-0.848 0.835-1.375 1.741-2.159 0.489-0.418 1.587-0.932 2.442-1.15 1.092-0.27 1.915-0.308 6.78-0.315 3.701-0.006 4.794 0.013 5.584 0.090z"></path>
<path d="M10.886 6.284c-1.574 0.141-2.532 0.52-3.322 1.324-0.81 0.816-1.131 1.626-1.292 3.252-0.103 1.112-0.103 9.177 0.006 10.301 0.141 1.523 0.508 2.423 1.292 3.207 0.79 0.79 1.697 1.15 3.219 1.292 0.476 0.045 2.513 0.058 5.687 0.038 5.179-0.026 5.379-0.038 6.214-0.328 1.317-0.45 2.159-1.272 2.596-2.538 0.373-1.067 0.411-1.722 0.411-6.882 0-5.128-0.038-5.745-0.411-6.824-0.431-1.247-1.298-2.095-2.577-2.525-0.874-0.302-1.002-0.308-6.426-0.321-2.828-0.006-5.257-0.006-5.398 0.006zM22.916 8.327c0.842 0.392 1.092 1.517 0.501 2.204-0.546 0.643-1.478 0.713-2.069 0.154-0.328-0.302-0.469-0.636-0.469-1.073 0-1.060 1.067-1.735 2.037-1.285zM17.030 9.947c1.202 0.225 2.223 0.739 3.065 1.529 1.471 1.395 2.153 3.2 1.941 5.16-0.161 1.523-0.797 2.77-1.947 3.849-0.842 0.79-1.774 1.266-2.93 1.504-2.731 0.553-5.559-0.855-6.748-3.367-0.533-1.118-0.701-2.288-0.514-3.618 0.206-1.484 1.067-2.924 2.326-3.888 1.362-1.041 3.175-1.478 4.807-1.17z"></path>
<path d="M14.935 12.157c-0.983 0.296-1.658 0.765-2.185 1.51-0.585 0.835-0.771 1.472-0.72 2.506 0.045 0.951 0.244 1.517 0.79 2.217 0.565 0.733 1.195 1.144 2.146 1.42 0.514 0.148 1.362 0.161 1.896 0.026 0.373-0.096 1.259-0.501 1.407-0.643 0.038-0.038 0.148-0.129 0.244-0.199 0.79-0.61 1.401-1.922 1.401-3.014s-0.61-2.403-1.401-3.014c-0.096-0.071-0.206-0.161-0.244-0.199-0.148-0.141-1.035-0.546-1.407-0.643-0.52-0.129-1.44-0.116-1.928 0.032z"></path>
</svg>
