<!-- Generated by IcoMoon.io -->
<svg version="1.1" xmlns="http://www.w3.org/2000/svg" width="32" height="32" viewBox="0 0 32 32">
<title>mail</title>
<path d="M25.999 1.001h-19.998c-2.75 0-5.001 2.249-5.001 5v19.999c0 2.75 2.25 5 5.001 5h19.998c2.752 0 5-2.25 5-5v-19.999c0-2.75-2.248-5-5.001-5zM8.5 8.5h15c0.268 0 0.527 0.057 0.766 0.166l-8.266 9.643-8.266-9.643c0.238-0.108 0.498-0.166 0.766-0.166zM6.625 21.625v-11.25c0-0.039 0.002-0.078 0.004-0.117l5.498 6.414-5.437 5.437c-0.042-0.156-0.065-0.319-0.065-0.485zM23.5 23.5h-15c-0.166 0-0.328-0.022-0.485-0.065l5.335-5.335 2.649 3.091 2.649-3.091 5.335 5.335c-0.156 0.042-0.319 0.065-0.485 0.065zM25.375 21.625c0 0.166-0.022 0.328-0.065 0.485l-5.437-5.437 5.498-6.414c0.002 0.039 0.004 0.078 0.004 0.117v11.25z"></path>
</svg>
