<!-- Generated by IcoMoon.io -->
<svg version="1.1" xmlns="http://www.w3.org/2000/svg" width="32" height="32" viewBox="0 0 32 32">
<title>stackoverflow</title>
<path fill="#000" d="M3.75 31.749h24.499c1.933 0 3.5-1.567 3.5-3.5v-24.499c0-1.933-1.567-3.5-3.5-3.5h-24.499c-1.933 0-3.5 1.567-3.5 3.5v24.499c0 1.933 1.567 3.5 3.5 3.5z"></path>
<path fill="#fff" d="M18.662 23.696l-8.361 0.004-0.001-1.771 8.361-0.004 0.001 1.771zM24.312 13.668l-1.43-8.168-1.76 0.303 1.43 8.168 1.76-0.303zM18.863 19.655l-8.325-0.761-0.164 1.764 8.325 0.76 0.164-1.763zM19.413 17.344l-8.074-2.152-0.464 1.71 8.074 2.152 0.463-1.71zM20.467 15.319l-7.201-4.212-0.908 1.525 7.202 4.212 0.907-1.525zM22.233 14.079l-1.475 0.997-4.711-6.85 1.476-0.998 4.711 6.85zM20.082 17.872h1.421v8.628h-13.816v-8.628h1.428v7.239h10.966v-7.239z"></path>
</svg>
